[Header]
FileType HTR
DataType HTRS
FileVersion 1
NumSegments 22
NumFrames 8
DataFrameRate 24
EulerRotationOrder ZYX
CalibrationUnits mm
RotationUnits Degrees
GlobalAxisofGravity Y
BoneLengthAxis Y
ScaleFactor 1.0
[SegmentNames&Hierarchy]
reference	GLOBAL
Hips	reference
Spine	Hips
Spine1	Spine
Neck	Spine1
Head	Neck
LeftShoulder	Spine1
LeftArm	LeftShoulder
LeftForeArm	LeftArm
LeftHand	LeftForeArm
RightShoulder	Spine1
RightArm	RightShoulder
RightForeArm	RightArm
RightHand	RightForeArm
LeftUpLeg	Hips
LeftLeg	LeftUpLeg
LeftFoot	LeftLeg
LeftToeBase	LeftFoot
RightUpLeg	Hips
RightLeg	RightUpLeg
RightFoot	RightLeg
RightToeBase	RightFoot
[BasePosition]
reference	0	0	0	0	0	0	1
Hips	0	0	0	0	0	0	1
Spine	0	0	0	0	-0	90	1
Spine1	0	0	0	0	0	0	1
Neck	0	0	0	-7.352327771	-7.352327771	90	1
Head	0	0	0	0	-0	90	1
LeftShoulder	0	0	0	0	0	0	1
LeftArm	0	0	0	0	0	0	1
LeftForeArm	0	0	0	0	0	0	1
LeftHand	0	0	0	0	0	0	1
RightShoulder	0	0	0	0	-0	180	1
RightArm	0	0	0	0	-0	180	1
RightForeArm	0	0	0	0	-0	180	1
RightHand	0	0	0	0	-0	180	1
LeftUpLeg	0	0	0	0	-0	-90	1
LeftLeg	0	0	0	0	-0	-90	1
LeftFoot	0	0	0	66.57146043	-66.57146043	-90	1
LeftToeBase	0	0	0	0	-90	0	1
RightUpLeg	0	0	0	0	-0	-90	1
RightLeg	0	0	0	0	-0	-90	1
RightFoot	0	0	0	66.57146043	-66.57146043	-90	1
RightToeBase	0	0	0	0	-90	0	1
[reference]
20	0	0	0	0	-0	0	1.0
21	0	0	0	0	-0	0	1.0
22	0	0	0	0	-0	0	1.0
23	0	0	0	0	-0	0	1.0
24	0	0	0	0	-0	0	1.0
25	0	0	0	0	-0	0	1.0
26	0	0	0	0	-0	0	1.0
27	0	0	0	0	-0	0	1.0
[Hips]
20	1.718549848	8.414533615	0.3475215435	-13.23789215	-100.3159943	10.95663166	1.0
21	1.801070094	8.392277718	0.3970652521	-10.80104065	-100.7482224	8.182666779	1.0
22	1.902919412	8.370023727	0.444817692	-11.44809341	-101.8600922	10.13127327	1.0
23	2.027777195	8.350822449	0.4838869274	-10.6578455	-103.8360977	11.38197231	1.0
24	2.157401562	8.413232803	0.5213215351	-9.996353149	-106.0516052	12.05006886	1.0
25	2.279540062	8.461594582	0.5461893678	-9.596328735	-107.6186752	11.85391235	1.0
26	2.403764248	8.477329254	0.5637307167	-8.256882668	-108.2353058	10.35641861	1.0
27	2.537733078	8.486355782	0.5810808539	-7.276050091	-107.8200073	8.903922081	1.0
[Spine]
20	0	0.7457100153	0	-2.343262911	2.502414227	-89.4105072	1.0
21	0	0.7457100153	0	-1.593268752	2.641422749	-89.9265213	1.0
22	0	0.7457100153	0	-2.343494415	2.763599873	-89.67276001	1.0
23	0	0.7457100153	0	-3.058631182	3.424165964	-89.16226196	1.0
24	0	0.7457100153	0	-2.87109971	4.349746704	-88.81830597	1.0
25	0	0.7457100153	0	-2.267351866	5.041125774	-88.70153046	1.0
26	0	0.7457100153	0	-2.249996662	5.399882317	-88.93090057	1.0
27	0	0.7457100153	0	-2.384977341	5.347542286	-89.08209229	1.0
[Spine1]
20	0	2.140589952	0	10.02209949	0.6079053283	2.47014761	1.0
21	0	2.140589952	0	11.66490269	0.5905983448	2.83177948	1.0
22	0	2.140589952	0	12.96990776	0.5241760015	3.430840015	1.0
23	0	2.140589952	0	12.40793324	0.7275145054	3.674037933	1.0
24	0	2.140589952	0	11.17068005	1.043735027	4.042480469	1.0
25	0	2.140589952	0	10.19930458	1.267213464	4.534237862	1.0
26	0	2.140589952	0	9.824149132	1.401005626	4.598217964	1.0
27	0	2.140589952	0	9.49951458	1.434501171	4.328511238	1.0
[Neck]
20	0	2.32246995	0	-18.95419502	4.021046638	-90.57913208	1.0
21	0	2.32246995	0	-22.55812836	4.411438942	-90.47844696	1.0
22	0	2.32246995	0	-25.35996246	4.795922756	-90.50688171	1.0
23	0	2.32246995	0	-27.30220604	5.063473225	-90.4881134	1.0
24	0	2.32246995	0	-28.79513359	5.265609741	-91.24771118	1.0
25	0	2.32246995	0	-29.36091232	5.518530369	-92.29232025	1.0
26	0	2.32246995	0	-28.80918312	5.375267982	-92.961586	1.0
27	0	2.32246995	0	-27.60691071	5.124411583	-93.57952881	1.0
[Head]
20	0	1.409579992	0.1818799973	-3.491967201	-3.341042995	-90.89844513	1.0
21	0	1.409579992	0.1818799973	-2.941142559	-2.928299427	-90.99248505	1.0
22	0	1.409579992	0.1818799973	-2.66383791	-2.495310068	-91.17182922	1.0
23	0	1.409579992	0.1818799973	-1.950115442	-2.211107254	-91.13842773	1.0
24	0	1.409579992	0.1818799973	-0.8792099357	-1.92424345	-90.40383911	1.0
25	0	1.409579992	0.1818799973	0.1350377351	-1.491216898	-89.95735168	1.0
26	0	1.409579992	0.1818799973	0.5753183961	-1.554366827	-89.71945953	1.0
27	0	1.409579992	0.1818799973	1.248721004	-1.845914364	-88.96295166	1.0
[LeftShoulder]
20	0.3668199778	1.946700096	-0.02662999928	-13.20635128	-13.7309742	-2.988500118	1.0
21	0.3668199778	1.946700096	-0.02662999928	-13.61723042	-14.539011	-2.365177631	1.0
22	0.3668199778	1.946700096	-0.02662999928	-13.52824879	-14.86152744	-1.645043373	1.0
23	0.3668199778	1.946700096	-0.02662999928	-12.40277195	-14.64309216	-0.7636017203	1.0
24	0.3668199778	1.946700096	-0.02662999928	-11.08987236	-14.4166317	0.1359446645	1.0
25	0.3668199778	1.946700096	-0.02662999928	-9.661688805	-14.12434673	1.330380917	1.0
26	0.3668199778	1.946700096	-0.02662999928	-7.940080643	-13.80731392	2.851347208	1.0
27	0.3668199778	1.946700096	-0.02662999928	-7.016494274	-14.13346291	4.429447174	1.0
[LeftArm]
20	1.140689969	0	0	34.67599869	21.01846695	-74.65665436	1.0
21	1.140689969	0	0	34.34240723	22.70418358	-74.63812256	1.0
22	1.140689969	0	0	34.73449707	24.6794548	-74.71554565	1.0
23	1.140689969	0	0	33.74786377	27.16106987	-73.86787415	1.0
24	1.140689969	0	0	31.88221359	30.14118576	-71.7064209	1.0
25	1.140689969	0	0	30.72807312	32.78248978	-68.13693237	1.0
26	1.140689969	0	0	31.04647636	34.14877701	-63.71566772	1.0
27	1.140689969	0	0	30.67383766	35.01182556	-59.57965851	1.0
[LeftForeArm]
20	2.749800205	0	0	2.510273695	-10.37730217	-9.670215607	1.0
21	2.749800205	0	0	6.601364613	-11.06393623	-11.9418335	1.0
22	2.749800205	0	0	9.165594101	-12.18081474	-14.00858688	1.0
23	2.749800205	0	0	13.53359699	-14.47608662	-17.46171188	1.0
24	2.749800205	0	0	17.72146797	-17.33687019	-22.79047394	1.0
25	2.749800205	0	0	22.89608383	-20.83394241	-30.42332077	1.0
26	2.749800205	0	0	26.44667244	-24.34946442	-38.70030212	1.0
27	2.749800205	0	0	28.53864479	-26.25272751	-45.82496643	1.0
[LeftHand]
20	2.295179844	0	0	1.604143977	-6.38676405	0.4671323001	1.0
21	2.295179844	0	0	5.362597942	-6.771299362	1.32853806	1.0
22	2.295179844	0	0	7.747081757	-8.650979042	-1.101932287	1.0
23	2.295179844	0	0	11.54662418	-8.682730675	-3.260591507	1.0
24	2.295179844	0	0	14.61315536	-9.15786171	-5.136858463	1.0
25	2.295179844	0	0	17.78233719	-9.66587925	-7.198840618	1.0
26	2.295179844	0	0	18.61454964	-10.15648556	-9.351589203	1.0
27	2.295179844	0	0	18.2166729	-9.999995232	-10.66884899	1.0
[RightShoulder]
20	-0.3601199985	1.946700096	-0.02662999928	-4.321014881	4.244026661	177.5595856	1.0
21	-0.3601199985	1.946700096	-0.02662999928	-4.817624569	4.527787685	177.4160461	1.0
22	-0.3601199985	1.946700096	-0.02662999928	-5.733067989	4.821105957	176.6425018	1.0
23	-0.3601199985	1.946700096	-0.02662999928	-5.977280617	5.148247719	176.1329956	1.0
24	-0.3601199985	1.946700096	-0.02662999928	-6.619783401	5.343491554	175.6455841	1.0
25	-0.3601199985	1.946700096	-0.02662999928	-7.201228619	5.437134266	175.125824	1.0
26	-0.3601199985	1.946700096	-0.02662999928	-8.178779602	5.222070694	174.0615082	1.0
27	-0.3601199985	1.946700096	-0.02662999928	-8.980041504	4.851664543	173.0820007	1.0
[RightArm]
20	-1.140689969	0	0	52.10482025	2.870722294	-103.3922729	1.0
21	-1.140689969	0	0	53.18828964	4.942640305	-104.9570465	1.0
22	-1.140689969	0	0	53.6750412	7.010014534	-106.4412842	1.0
23	-1.140689969	0	0	53.55189514	8.872009277	-108.3428497	1.0
24	-1.140689969	0	0	55.13114548	10.09778881	-110.5206833	1.0
25	-1.140689969	0	0	57.78427505	11.55847549	-112.8293304	1.0
26	-1.140689969	0	0	59.32836914	13.04388237	-113.9763031	1.0
27	-1.140689969	0	0	61.91765976	14.09737396	-114.002533	1.0
[RightForeArm]
20	-2.749800205	0	0	1.571692228	24.94068527	175.6963654	1.0
21	-2.749800205	0	0	2.051710367	28.18309593	175.1284637	1.0
22	-2.749800205	0	0	3.626827002	33.66643906	175.4028015	1.0
23	-2.749800205	0	0	5.49525404	42.46195221	175.9389191	1.0
24	-2.749800205	0	0	5.388310432	54.25954437	174.7398682	1.0
25	-2.749800205	0	0	1.648137808	67.93939209	169.0548248	1.0
26	-2.749800205	0	0	-14.75629711	80.21117401	151.325531	1.0
27	-2.749800205	0	0	-76.73466492	83.42733002	86.60716248	1.0
[RightHand]
20	-2.295179844	0	0	1.736183405	16.98546028	174.7330322	1.0
21	-2.295179844	0	0	2.106662989	18.24067688	172.7274475	1.0
22	-2.295179844	0	0	3.502645016	19.29435349	171.122879	1.0
23	-2.295179844	0	0	5.234376907	20.47680664	169.9204559	1.0
24	-2.295179844	0	0	6.018548012	21.02810669	169.0813141	1.0
25	-2.295179844	0	0	7.030638695	20.79153633	169.1089325	1.0
26	-2.295179844	0	0	8.082652092	20.21130753	169.4358063	1.0
27	-2.295179844	0	0	8.352056503	19.47552109	169.6747131	1.0
[LeftUpLeg]
20	0.9094099998	0	0	-4.287257671	-3.774512529	88.79788971	1.0
21	0.9094099998	0	0	-6.036109447	-1.782826304	88.78094482	1.0
22	0.9094099998	0	0	-8.330752373	0.8059360981	89.20521545	1.0
23	0.9094099998	0	0	-10.14696598	1.828369141	89.97091675	1.0
24	0.9094099998	0	0	-10.47326183	2.596572399	90.89380646	1.0
25	0.9094099998	0	0	-9.349586487	3.125745058	91.4450531	1.0
26	0.9094099998	0	0	-8.362249374	3.787523746	91.58095551	1.0
27	0.9094099998	0	0	-8.428941727	4.686515808	91.41830444	1.0
[LeftLeg]
20	0	-4.498080254	0	29.82479477	-10.65149689	82.47453308	1.0
21	0	-4.498080254	0	33.49886322	-12.36913586	79.33450317	1.0
22	0	-4.498080254	0	34.98678589	-14.92390823	77.58724976	1.0
23	0	-4.498080254	0	32.3408699	-13.31968212	78.58289337	1.0
24	0	-4.498080254	0	28.06393814	-11.41481781	79.820961	1.0
25	0	-4.498080254	0	22.91042709	-8.460941315	81.57218933	1.0
26	0	-4.498080254	0	18.82447052	-6.704368591	82.21710205	1.0
27	0	-4.498080254	0	17.52531624	-7.021245956	82.12579346	1.0
[LeftFoot]
20	0	-3.729400158	0	-77.62203979	114.9798584	-13.63687134	1.0
21	0	-3.729400158	0	-76.88508606	116.589386	-11.40808105	1.0
22	0	-3.729400158	0	-76.21191406	118.351593	-9.675485611	1.0
23	0	-3.729400158	0	-77.98368073	118.3330231	-11.97939682	1.0
24	0	-3.729400158	0	-78.11403656	118.1253357	-14.00992012	1.0
25	0	-3.729400158	0	-79.31211853	117.5116119	-18.45909119	1.0
26	0	-3.729400158	0	-78.95738983	116.6961212	-22.03813744	1.0
27	0	-3.729400158	0	-76.8806839	116.1014481	-23.24827194	1.0
[LeftToeBase]
20	0	-0.5911099911	1.364109993	0	0	0	1.0
21	0	-0.5911099911	1.364109993	0	0	0	1.0
22	0	-0.5911099911	1.364109993	0	0	0	1.0
23	0	-0.5911099911	1.364109993	0	0	0	1.0
24	0	-0.5911099911	1.364109993	0	0	0	1.0
25	0	-0.5911099911	1.364109993	0	0	0	1.0
26	0	-0.5911099911	1.364109993	0	0	0	1.0
27	0	-0.5911099911	1.364109993	0	0	0	1.0
[RightUpLeg]
20	-0.9094099998	0	0	-3.638770103	-9.099676132	92.77723694	1.0
21	-0.9094099998	0	0	-6.298574924	-9.553827286	92.96193695	1.0
22	-0.9094099998	0	0	-9.049142838	-9.129289627	94.21278381	1.0
23	-0.9094099998	0	0	-12.18684959	-6.884696484	95.17855835	1.0
24	-0.9094099998	0	0	-13.33340073	-6.724360466	95.9803772	1.0
25	-0.9094099998	0	0	-12.75073528	-7.625923634	96.3391571	1.0
26	-0.9094099998	0	0	-11.46560097	-9.980945587	96.60766602	1.0
27	-0.9094099998	0	0	-9.421503067	-10.80583	96.13948059	1.0
[RightLeg]
20	0	-4.498080254	0	25.75314331	2.795363903	87.75978851	1.0
21	0	-4.498080254	0	30.48129845	2.270272017	85.77692413	1.0
22	0	-4.498080254	0	31.49217224	2.154052019	84.19367981	1.0
23	0	-4.498080254	0	31.66254425	2.095084429	84.59277344	1.0
24	0	-4.498080254	0	30.08373451	0.8274973631	84.35868835	1.0
25	0	-4.498080254	0	30.72599983	1.614526868	85.32344818	1.0
26	0	-4.498080254	0	33.43667603	2.277876616	84.15826416	1.0
27	0	-4.498080254	0	36.4848671	3.051454306	84.43773651	1.0
[RightFoot]
20	0	-3.729400158	0	34.23192215	64.24695587	92.11810303	1.0
21	0	-3.729400158	0	36.77448654	64.23422241	96.53178406	1.0
22	0	-3.729400158	0	39.40487671	64.15289307	99.47075653	1.0
23	0	-3.729400158	0	37.96110535	63.26754761	96.69448853	1.0
24	0	-3.729400158	0	44.09957886	63.1787529	102.088974	1.0
25	0	-3.729400158	0	46.56943893	61.78957367	103.8094254	1.0
26	0	-3.729400158	0	52.32627869	60.95323181	108.5322647	1.0
27	0	-3.729400158	0	56.034729	59.1508522	110.1349182	1.0
[RightToeBase]
20	0	-0.5911099911	1.364109993	0	0	0	1.0
21	0	-0.5911099911	1.364109993	0	0	0	1.0
22	0	-0.5911099911	1.364109993	0	0	0	1.0
23	0	-0.5911099911	1.364109993	0	0	0	1.0
24	0	-0.5911099911	1.364109993	0	0	0	1.0
25	0	-0.5911099911	1.364109993	0	0	0	1.0
26	0	-0.5911099911	1.364109993	0	0	0	1.0
27	0	-0.5911099911	1.364109993	0	0	0	1.0
[EndOfFile]
